<svg version="1.1" xmlns="http://www.w3.org/2000/svg" xmlns:xlink="http://www.w3.org/1999/xlink" width="607" height="423" viewBox="0,0,607,423"><g transform="translate(63.5,31)"><g data-paper-data="{&quot;isPaintingLayer&quot;:true}" fill-rule="nonzero" stroke="none" stroke-linecap="butt" stroke-linejoin="miter" stroke-miterlimit="10" stroke-dasharray="" stroke-dashoffset="0" style="mix-blend-mode: normal"><path d="M-63.5,392v-423h607v423z" fill="#ffffff" stroke-width="0"/><path d="M292.35645,183.97705c0,26.66864 -22.99337,48.29433 -51.36195,48.29433c-28.36858,0 -51.36012,-21.61652 -51.36012,-48.29433c0,-26.66864 22.9897,-39.0566 51.36012,-39.0566c28.36675,-0.00184 51.36195,12.3898 51.36195,39.0566z" fill="#780e17" stroke-width="1"/><g fill="#231f20" stroke-width="1"><path d="M298.108,183.4612c0,29.65915 -25.56716,53.70443 -57.10984,53.70443c-31.53717,0 -57.10616,-24.04528 -57.10616,-53.70443c0,-26.13809 19.86517,-37.90555 46.16848,-40.33615c0,0 8.31249,-1.06476 16.77185,-0.34697c28.79265,1.34013 51.27567,12.88179 51.27567,40.68312zM289.3953,184.24875c0,-23.13472 -18.37083,-34.85079 -42.12973,-36.56909c0,0 -15.06639,0.21112 -15.52351,0.26435c-22.29577,2.4618 -39.1282,14.154 -39.1282,36.30107c0,25.12473 21.65874,45.50025 48.38612,45.50025c26.72555,0 48.38429,-20.37185 48.3953,-45.49658z"/><path d="M257.43406,159.49302c-6.55013,0.33228 -12.82488,0.4975 -19.38786,1.23366c-4.38205,0.49199 -8.60438,0.53055 -11.85008,-2.7794c-0.70495,-0.72514 0.21662,-1.97532 1.09781,-1.41907c2.16991,1.36033 4.35635,1.91107 6.55563,2.01754c0.14319,0.11749 7.8462,-0.89954 11.36359,-2.01571c4.24436,-1.15655 8.4924,-2.11117 12.72024,-0.71413c2.02121,0.66823 1.63019,3.56512 -0.49934,3.6771z"/></g><path d="M206.94044,183.71821c0,6.29862 3.39623,11.40398 -0.15421,11.40398c-3.55043,0 -6.42529,-5.10535 -6.42529,-11.40398c0,-6.29679 2.87486,-11.40214 6.42529,-11.40214c3.55043,0 0.15421,5.10719 0.15421,11.40214z" fill="#848484" stroke-width="1"/><path d="M226.1641,130.42449c1.87435,-1.11984 3.74319,-2.24334 5.61571,-3.36502c1.34748,2.07078 2.70229,4.09199 3.78909,6.39225c3.96899,8.37858 3.09516,17.22896 2.98134,26.09036c-0.68842,0.16339 -1.79357,0.28088 -2.47466,0.40204c0.47364,-11.28649 -2.21214,-21.63304 -9.91147,-29.51963z" fill="#3c280b" stroke-width="1"/><path d="M243.01856,155.67038c0,0 -0.42223,3.44396 -0.46079,4.09383c0,0 -6.92279,2.06344 -9.63794,1.03172l-0.08445,-2.9538c0.05507,-5.90209 -1.78072,-12.2411 -2.86752,-14.2256c-0.51953,-0.94727 -2.61234,-6.36288 -8.99541,-12.03733c-1.09414,-0.96747 -0.72514,-2.78123 0.44426,-3.48434c3.31729,-1.99 6.62539,-3.98001 9.93901,-5.97001c1.06476,-0.63702 2.32228,-0.16155 3.04375,0.79857c10.14829,13.5078 8.92932,31.34992 8.61907,32.74696zM238.36298,156.98114c0.20561,-8.15461 0.89954,-15.73279 -2.79408,-23.52942c-1.08679,-2.30025 -2.44161,-4.32147 -3.78909,-6.39225c-1.87251,1.12167 -3.74136,2.24518 -5.61571,3.36502c7.27343,7.44967 10.24375,16.46527 10.15196,26.95502v2.11484l2.0359,-0.25885z" fill="#231f20" stroke-width="1"/><text transform="translate(189.5,194.5) scale(0.5,0.5)" font-size="40" xml:space="preserve" fill="#ffffff" fill-rule="nonzero" stroke="none" stroke-width="1" stroke-linecap="butt" stroke-linejoin="miter" stroke-miterlimit="10" stroke-dasharray="" stroke-dashoffset="0" font-family="Sans Serif" font-weight="normal" text-anchor="start" style="mix-blend-mode: normal"><tspan x="0" dy="0">black hole</tspan></text></g></g></svg>