<svg version="1.1" xmlns="http://www.w3.org/2000/svg" xmlns:xlink="http://www.w3.org/1999/xlink" width="625" height="476" viewBox="0,0,625,476"><g transform="translate(72.5,25)"><g data-paper-data="{&quot;isPaintingLayer&quot;:true}" fill-rule="nonzero" stroke="none" stroke-width="0" stroke-linecap="butt" stroke-linejoin="miter" stroke-miterlimit="10" stroke-dasharray="" stroke-dashoffset="0" style="mix-blend-mode: normal"><path d="M300,215c0,16.01626 -26.86292,29 -60,29c-33.13708,0 -60,-12.98374 -60,-29c0,-16.01626 26.86292,-29 60,-29c33.13708,0 60,12.98374 60,29z" fill="#341c00"/><path d="M552.5,332.5c0,65.44574 -139.91102,118.5 -312.5,118.5c-172.58898,0 -312.5,-53.05426 -312.5,-118.5c0,-65.44574 56.90668,-119.83486 312.5,-118.5c258.5837,1.35048 312.5,53.05426 312.5,118.5z" fill="#000000"/><path d="M-31.5,278v-244h116c0,0 -40,41.53452 -39,128c0.46026,39.79685 12,71 12,71z" fill="#000000"/><path d="M188.5,218c0,0 34.6962,2.54509 32,-77c-2.97328,-87.7198 -54,-110 -54,-110l74,-18v229z" fill="#000000"/><path d="M55.5,92l-50,-93h223l-20,81c0,0 -17.35609,-28 -76,-26c-65.43507,2.23161 -77,38 -77,38z" fill="#000000"/><path d="M514.5,278v-244h-116.85294c0,0 40.29412,41.53452 39.28676,128c-0.46365,39.79685 -12.08824,71 -12.08824,71z" fill="#000000"/><path d="M292.88235,218c0,0 -34.95131,2.54509 -32.23529,-77c2.99514,-87.7198 54.39706,-110 54.39706,-110l-74.54412,-18v229z" fill="#000000"/><path d="M426.86029,92l50.36765,-93h-224.63971l20.14706,81c0,0 17.48371,-28 76.55882,-26c65.91621,2.23161 77.56618,38 77.56618,38z" fill="#000000"/><path d="M-45.5,38v-63h592v63z" fill="#000000"/></g></g></svg>